<svg width="1150" height="776" viewBox="0 0 1150 776" fill="none" xmlns="http://www.w3.org/2000/svg">
  <path d="M187.34 463.577C156.797 378.45 73.3629 194.749 203.15 251.326C387.083 331.519 91.4952 445.555 24.4653 479.799C-53.4886 519.617 72.8985 664.354 151.4 625.612C207.293 598.037 216.87 545.893 187.34 463.577Z" fill="url(#paint0_radial)"/>
  <path d="M1040.62 260.636C839.406 403.482 1265.41 723.351 1033.62 769.231C929.059 789.928 758.396 754.701 606.995 685.402C570.658 668.767 535.431 650.175 502.495 629.918C381.792 555.667 284.412 458.93 290.738 355.109C303.567 144.426 495.341 39.0456 730.606 8.40938C1030.4 -30.6326 1311.36 68.4306 1040.62 260.636Z" fill="url(#paint1_radial)"/>
  <circle cx="62.5" cy="587.5" r="5.5" fill="white"/>
  <path d="M65.5605 572V562.824H77.6367V558.219H65.5605V551.592H80.1504V546.793H59.8828V572H65.5605ZM97.9219 558.465L93.2109 546.793H84.1055V572H89.7832V555.266L89.1504 552.049H89.748L90.627 555.266L95.2324 565.953H101.631L106.236 555.266L107.115 552.049H107.713L107.062 555.266V572H112.758V546.793H103.652L98.9414 558.465L98.6426 561.488H98.2207L97.9219 558.465ZM126.697 564.617C126.697 566.445 127.488 568.186 129.105 569.75C130.705 571.314 133.623 572.352 137.279 572.352C141.094 572.352 143.977 571.156 145.928 568.783C147.861 566.41 148.828 563.316 148.828 559.502V558.975C148.828 555.055 147.896 551.996 146.033 549.764C144.152 547.549 141.305 546.441 137.455 546.441C134.062 546.441 131.373 547.215 129.404 548.744C127.436 550.273 126.451 552.383 126.451 555.037C126.451 557.48 127.365 559.449 129.193 560.943C131.004 562.438 133.43 563.176 136.453 563.176C138.141 563.176 139.74 562.807 140.602 562.42C141.023 562.227 141.41 562.016 141.779 561.752C142.5 561.26 142.588 561.066 142.676 560.979H142.816C142.816 563 142.359 564.6 141.445 565.777C140.514 566.973 139.125 567.57 137.244 567.57C135.82 567.57 134.59 567.113 133.975 566.586C132.973 565.76 132.674 564.74 132.709 564.617H126.697ZM137.385 558.781C135.873 558.781 134.66 558.447 133.764 557.779C132.85 557.111 132.393 556.18 132.393 555.002C132.393 552.646 134.273 551.223 137.385 551.223C138.844 551.223 140.057 551.557 140.988 552.225C141.92 552.91 142.395 553.824 142.395 555.002C142.395 556.215 141.92 557.146 140.971 557.797C140.021 558.447 138.826 558.781 137.385 558.781ZM174.809 572V567.219H159.428C159.428 566.674 159.814 566.164 160.57 565.689C161.326 565.215 162.275 564.811 163.418 564.459C164.561 564.107 165.791 563.65 167.109 563.105C168.428 562.561 169.658 561.945 170.801 561.277C171.943 560.627 172.893 559.713 173.648 558.57C174.404 557.428 174.773 556.109 174.773 554.615C174.773 549.271 171.047 546.441 164.227 546.441C157.354 546.441 153.68 549.377 153.68 555.23V556.268H159.357V555.23C159.357 552.77 160.922 551.223 164.227 551.223C167.461 551.223 169.078 552.348 169.078 554.615C169.096 557.129 166.125 558.447 162.75 559.555C160.43 560.346 158.074 561.225 156.176 562.402C154.277 563.58 152.994 565.566 152.994 568.01V572H174.809ZM181.137 576.641C182.104 576.641 182.895 576.061 183.545 574.918C184.195 573.775 184.512 572.193 184.512 570.172C184.459 567.711 183.51 566.604 181.453 566.604C179.572 566.604 178.395 567.746 178.395 569.486C178.395 570.875 178.852 571.578 179.379 571.842C180.117 572.211 181.137 572.246 181.137 573.986V576.641ZM209.561 554.176C209.561 552.189 208.699 550.396 206.994 548.814C205.289 547.232 202.723 546.441 199.312 546.441C195.674 546.441 192.896 547.637 190.98 550.01C189.064 552.4 188.115 555.494 188.115 559.291V559.836C188.115 563.756 189.047 566.814 190.928 569.029C192.791 571.244 195.639 572.352 199.488 572.352C202.898 572.352 205.588 571.578 207.557 570.049C209.525 568.52 210.51 566.41 210.51 563.756C210.51 561.312 209.596 559.344 207.768 557.85C205.939 556.355 203.514 555.617 200.49 555.617C198.82 555.617 197.221 555.986 196.359 556.373C195.92 556.566 195.533 556.795 195.182 557.041C194.461 557.551 194.355 557.727 194.268 557.814H194.127C194.127 555.828 194.566 554.229 195.445 553.016C196.324 551.82 197.625 551.223 199.348 551.223C200.736 551.223 201.861 551.662 202.441 552.189C203.391 553.051 203.549 554.053 203.549 554.176H209.561ZM199.559 560.012C201.07 560.012 202.283 560.346 203.197 561.014C204.111 561.699 204.568 562.613 204.568 563.791C204.568 566.129 202.67 567.57 199.559 567.57C198.1 567.57 196.887 567.236 195.955 566.551C195.023 565.883 194.549 564.969 194.549 563.791C194.549 562.596 195.023 561.664 195.973 560.996C196.922 560.346 198.117 560.012 199.559 560.012Z" fill="black"/>
  <path d="M70.8037 532L64.3438 525.593L70.4082 519.396H68.3076L62.3135 525.487V519.396H60.6172V532H62.3135V525.769L68.7031 532H70.8037ZM71.6211 523.176V528.098C71.6211 529.451 71.999 530.471 72.7549 531.147C73.502 531.833 74.4512 532.176 75.5938 532.176C76.5078 532.176 77.3516 531.93 77.7998 531.648C78.0195 531.517 78.2217 531.358 78.4062 531.183C78.7578 530.831 78.793 530.717 78.8369 530.646H78.9248V532H80.4717V523.176H78.9248V527.737C78.9248 528.634 78.6787 529.354 78.1777 529.908C77.6768 530.462 76.9648 530.743 76.042 530.743C75.1719 530.743 74.4688 530.497 73.9502 530.014C73.4316 529.53 73.168 528.766 73.168 527.737V523.176H71.6211ZM88.0479 523C87.1338 523 86.29 523.334 85.8418 523.65C85.6221 523.817 85.4199 524.011 85.2354 524.23C84.875 524.679 84.8486 524.793 84.8047 524.89H84.7168V523.176H83.1699V532H84.7168V527.808C84.7168 526.902 84.9893 526.146 85.5342 525.54C86.0791 524.934 86.8262 524.635 87.7754 524.635C88.3291 524.644 88.7686 524.705 89.1025 524.819V523.123L88.9795 523.105C88.8125 523.062 88.4346 523 88.0479 523ZM99.9395 527.588C99.9395 526.208 99.4824 525.092 98.5771 524.257C97.6631 523.422 96.5029 523 95.1055 523C93.6992 523 92.5391 523.422 91.6338 524.257C90.7197 525.092 90.2627 526.208 90.2627 527.588C90.2627 528.985 90.7197 530.093 91.6426 530.928C92.5566 531.763 93.7432 532.176 95.1934 532.176C95.8789 532.176 96.5029 532.088 97.0566 531.895C97.6104 531.71 98.041 531.508 98.3486 531.271C98.6562 531.033 98.9199 530.77 99.1484 530.471C99.377 530.172 99.5176 529.961 99.5791 529.847C99.6318 529.732 99.667 529.645 99.6934 529.574H97.874L97.8037 529.697C97.6895 529.838 97.373 530.102 96.9951 530.33C96.6084 530.559 95.9316 530.743 95.1934 530.743C94.2002 530.743 93.4004 530.462 92.8115 529.908C92.2139 529.354 91.915 528.827 91.915 528.326H99.8867L99.9395 527.588ZM97.4434 525.276C98.0146 525.83 98.3047 526.384 98.3047 526.92H91.8975C91.8975 526.384 92.1875 525.83 92.7676 525.276C93.3389 524.723 94.1211 524.441 95.1055 524.441C96.0811 524.441 96.8633 524.723 97.4434 525.276ZM108.948 529.39C108.948 530.295 108.043 530.743 106.232 530.734C104.422 530.734 103.517 530.198 103.517 529.117V528.836H101.935V529.117C101.935 529.838 102.146 530.436 102.559 530.91C103.385 531.859 104.65 532.176 106.232 532.176C107.032 532.176 107.744 532.097 108.368 531.921C108.983 531.754 109.502 531.455 109.915 531.024C110.328 530.594 110.539 530.049 110.539 529.39C110.539 528.783 110.372 528.291 110.038 527.913C109.695 527.544 109.273 527.298 108.772 527.175C108.271 527.061 107.718 526.964 107.129 526.885C106.531 526.814 105.978 526.762 105.477 526.735C104.976 526.709 104.554 526.604 104.22 526.428C103.877 526.252 103.71 525.997 103.71 525.663C103.71 524.846 104.536 524.441 106.197 524.441C107.955 524.441 108.685 524.978 108.685 526.059H110.267C110.267 525.004 109.897 524.23 109.15 523.738C108.403 523.246 107.419 523 106.197 523C104.993 523 104.018 523.22 103.262 523.659C102.506 524.107 102.128 524.775 102.128 525.663C102.128 526.27 102.295 526.753 102.638 527.122C102.972 527.491 103.394 527.729 103.895 527.834C104.396 527.948 104.949 528.036 105.547 528.106C106.136 528.186 106.689 528.238 107.19 528.265C107.691 528.291 108.113 528.405 108.447 528.59C108.781 528.774 108.948 529.047 108.948 529.39ZM119.53 529.39C119.53 530.295 118.625 530.743 116.814 530.734C115.004 530.734 114.099 530.198 114.099 529.117V528.836H112.517V529.117C112.517 529.838 112.728 530.436 113.141 530.91C113.967 531.859 115.232 532.176 116.814 532.176C117.614 532.176 118.326 532.097 118.95 531.921C119.565 531.754 120.084 531.455 120.497 531.024C120.91 530.594 121.121 530.049 121.121 529.39C121.121 528.783 120.954 528.291 120.62 527.913C120.277 527.544 119.855 527.298 119.354 527.175C118.854 527.061 118.3 526.964 117.711 526.885C117.113 526.814 116.56 526.762 116.059 526.735C115.558 526.709 115.136 526.604 114.802 526.428C114.459 526.252 114.292 525.997 114.292 525.663C114.292 524.846 115.118 524.441 116.779 524.441C118.537 524.441 119.267 524.978 119.267 526.059H120.849C120.849 525.004 120.479 524.23 119.732 523.738C118.985 523.246 118.001 523 116.779 523C115.575 523 114.6 523.22 113.844 523.659C113.088 524.107 112.71 524.775 112.71 525.663C112.71 526.27 112.877 526.753 113.22 527.122C113.554 527.491 113.976 527.729 114.477 527.834C114.978 527.948 115.531 528.036 116.129 528.106C116.718 528.186 117.271 528.238 117.772 528.265C118.273 528.291 118.695 528.405 119.029 528.59C119.363 528.774 119.53 529.047 119.53 529.39ZM123.099 529.53C123.099 530.444 123.485 531.112 124.268 531.534C125.05 531.965 126.061 532.176 127.309 532.176C128.179 532.176 128.97 531.991 129.409 531.798C129.629 531.701 129.822 531.596 130.007 531.473C130.367 531.235 130.411 531.147 130.455 531.104H130.525L130.569 531.209C130.64 531.35 130.807 531.587 131.062 531.798C131.308 532.018 131.791 532.176 132.362 532.176C132.705 532.176 132.969 532.132 133.153 532.035V530.646L133.118 530.664C133.048 530.726 132.863 530.761 132.652 530.761C132.125 530.761 131.896 530.488 131.896 529.574V526.366C131.888 525.276 131.492 524.441 130.719 523.861C129.945 523.29 128.943 523 127.704 523C126.482 523 125.48 523.237 124.698 523.712C123.916 524.187 123.521 524.907 123.512 525.883H125.059C125.059 524.925 125.938 524.441 127.704 524.441C129.532 524.441 130.35 525.215 130.35 526.366V527.755L130.007 527.535C129.778 527.395 129.4 527.254 128.873 527.104C128.346 526.955 127.783 526.885 127.186 526.885C125.999 526.885 125.015 527.096 124.25 527.526C123.485 527.957 123.099 528.625 123.099 529.53ZM127.537 528.326C128.108 528.326 128.618 528.379 129.084 528.493C129.541 528.607 129.849 528.713 130.016 528.792C130.183 528.88 130.288 528.95 130.35 529.012V530.022C130.288 530.084 130.183 530.154 130.016 530.242C129.849 530.339 129.541 530.444 129.075 530.559C128.609 530.682 128.1 530.743 127.537 530.743C125.63 530.743 124.681 530.339 124.681 529.53C124.681 528.73 125.63 528.326 127.537 528.326ZM134.507 529.53C134.507 530.444 134.894 531.112 135.676 531.534C136.458 531.965 137.469 532.176 138.717 532.176C139.587 532.176 140.378 531.991 140.817 531.798C141.037 531.701 141.23 531.596 141.415 531.473C141.775 531.235 141.819 531.147 141.863 531.104H141.934L141.978 531.209C142.048 531.35 142.215 531.587 142.47 531.798C142.716 532.018 143.199 532.176 143.771 532.176C144.113 532.176 144.377 532.132 144.562 532.035V530.646L144.526 530.664C144.456 530.726 144.271 530.761 144.061 530.761C143.533 530.761 143.305 530.488 143.305 529.574V526.366C143.296 525.276 142.9 524.441 142.127 523.861C141.354 523.29 140.352 523 139.112 523C137.891 523 136.889 523.237 136.106 523.712C135.324 524.187 134.929 524.907 134.92 525.883H136.467C136.467 524.925 137.346 524.441 139.112 524.441C140.94 524.441 141.758 525.215 141.758 526.366V527.755L141.415 527.535C141.187 527.395 140.809 527.254 140.281 527.104C139.754 526.955 139.191 526.885 138.594 526.885C137.407 526.885 136.423 527.096 135.658 527.526C134.894 527.957 134.507 528.625 134.507 529.53ZM138.945 528.326C139.517 528.326 140.026 528.379 140.492 528.493C140.949 528.607 141.257 528.713 141.424 528.792C141.591 528.88 141.696 528.95 141.758 529.012V530.022C141.696 530.084 141.591 530.154 141.424 530.242C141.257 530.339 140.949 530.444 140.483 530.559C140.018 530.682 139.508 530.743 138.945 530.743C137.038 530.743 136.089 530.339 136.089 529.53C136.089 528.73 137.038 528.326 138.945 528.326ZM151.153 523C150.239 523 149.396 523.334 148.947 523.65C148.728 523.817 148.525 524.011 148.341 524.23C147.98 524.679 147.954 524.793 147.91 524.89H147.822V523.176H146.275V532H147.822V527.808C147.822 526.902 148.095 526.146 148.64 525.54C149.185 524.934 149.932 524.635 150.881 524.635C151.435 524.644 151.874 524.705 152.208 524.819V523.123L152.085 523.105C151.918 523.062 151.54 523 151.153 523ZM163.045 527.588C163.045 526.208 162.588 525.092 161.683 524.257C160.769 523.422 159.608 523 158.211 523C156.805 523 155.645 523.422 154.739 524.257C153.825 525.092 153.368 526.208 153.368 527.588C153.368 528.985 153.825 530.093 154.748 530.928C155.662 531.763 156.849 532.176 158.299 532.176C158.984 532.176 159.608 532.088 160.162 531.895C160.716 531.71 161.146 531.508 161.454 531.271C161.762 531.033 162.025 530.77 162.254 530.471C162.482 530.172 162.623 529.961 162.685 529.847C162.737 529.732 162.772 529.645 162.799 529.574H160.979L160.909 529.697C160.795 529.838 160.479 530.102 160.101 530.33C159.714 530.559 159.037 530.743 158.299 530.743C157.306 530.743 156.506 530.462 155.917 529.908C155.319 529.354 155.021 528.827 155.021 528.326H162.992L163.045 527.588ZM160.549 525.276C161.12 525.83 161.41 526.384 161.41 526.92H155.003C155.003 526.384 155.293 525.83 155.873 525.276C156.444 524.723 157.227 524.441 158.211 524.441C159.187 524.441 159.969 524.723 160.549 525.276Z" fill="black"/>
  <circle cx="752.5" cy="27.5" r="5.5" fill="white"/>
  <path d="M755.561 102V92.8242H767.637V88.2188H755.561V81.5918H770.15V76.793H749.883V102H755.561ZM787.922 88.4648L783.211 76.793H774.105V102H779.783V85.2656L779.15 82.0488H779.748L780.627 85.2656L785.232 95.9531H791.631L796.236 85.2656L797.115 82.0488H797.713L797.062 85.2656V102H802.758V76.793H793.652L788.941 88.4648L788.643 91.4883H788.221L787.922 88.4648ZM819.984 78.3223C818.174 79.5879 817.277 81.2227 817.277 83.2441C817.277 84.8789 818.104 86.2852 818.947 87.041C819.369 87.4102 819.861 87.7441 820.406 88.0078C821.514 88.5703 821.865 88.5879 822.094 88.6406V88.9043L821.514 89.0449C820.758 89.1855 819.562 89.8008 818.438 90.6445C817.312 91.4883 816.451 93.1055 816.451 95.0215C816.451 97.4121 817.436 99.2227 819.404 100.471C821.373 101.719 824.115 102.352 827.613 102.352C831.111 102.352 833.854 101.736 835.822 100.488C837.773 99.2402 838.758 97.4297 838.758 95.0215C838.758 94.0547 838.564 93.1934 838.16 92.4199C837.756 91.6641 837.299 91.0664 836.807 90.6621C836.314 90.2578 835.752 89.8887 835.102 89.5898C833.801 88.9922 833.396 88.957 833.115 88.9043V88.6406L833.625 88.5352C834.275 88.3418 835.295 87.7969 836.227 87.041C837.158 86.2852 837.932 84.8789 837.932 83.2441C837.932 81.2227 837.035 79.5879 835.242 78.3223C833.432 77.0742 830.9 76.4414 827.613 76.4414C824.326 76.4414 821.777 77.0742 819.984 78.3223ZM823.729 96.8672C822.832 96.2871 822.393 95.4785 822.393 94.4766C822.393 92.3672 824.203 91.1719 827.613 91.1719C831.023 91.1719 832.816 92.3672 832.816 94.4766C832.816 95.4785 832.377 96.2871 831.498 96.8672C830.602 97.4473 829.318 97.7461 827.613 97.7461C825.908 97.7461 824.607 97.4473 823.729 96.8672ZM831.99 84C831.99 85.7402 830.391 86.9531 827.613 86.9531C824.836 86.9531 823.219 85.7402 823.219 84C823.219 82.1719 824.871 81.0469 827.613 81.0469C830.338 81.0469 831.99 82.1719 831.99 84ZM846.281 78.3223C844.471 79.5879 843.574 81.2227 843.574 83.2441C843.574 84.8789 844.4 86.2852 845.244 87.041C845.666 87.4102 846.158 87.7441 846.703 88.0078C847.811 88.5703 848.162 88.5879 848.391 88.6406V88.9043L847.811 89.0449C847.055 89.1855 845.859 89.8008 844.734 90.6445C843.609 91.4883 842.748 93.1055 842.748 95.0215C842.748 97.4121 843.732 99.2227 845.701 100.471C847.67 101.719 850.412 102.352 853.91 102.352C857.408 102.352 860.15 101.736 862.119 100.488C864.07 99.2402 865.055 97.4297 865.055 95.0215C865.055 94.0547 864.861 93.1934 864.457 92.4199C864.053 91.6641 863.596 91.0664 863.104 90.6621C862.611 90.2578 862.049 89.8887 861.398 89.5898C860.098 88.9922 859.693 88.957 859.412 88.9043V88.6406L859.922 88.5352C860.572 88.3418 861.592 87.7969 862.523 87.041C863.455 86.2852 864.229 84.8789 864.229 83.2441C864.229 81.2227 863.332 79.5879 861.539 78.3223C859.729 77.0742 857.197 76.4414 853.91 76.4414C850.623 76.4414 848.074 77.0742 846.281 78.3223ZM850.025 96.8672C849.129 96.2871 848.689 95.4785 848.689 94.4766C848.689 92.3672 850.5 91.1719 853.91 91.1719C857.32 91.1719 859.113 92.3672 859.113 94.4766C859.113 95.4785 858.674 96.2871 857.795 96.8672C856.898 97.4473 855.615 97.7461 853.91 97.7461C852.205 97.7461 850.904 97.4473 850.025 96.8672ZM858.287 84C858.287 85.7402 856.688 86.9531 853.91 86.9531C851.133 86.9531 849.516 85.7402 849.516 84C849.516 82.1719 851.168 81.0469 853.91 81.0469C856.635 81.0469 858.287 82.1719 858.287 84ZM871.242 106.641C872.209 106.641 873 106.061 873.65 104.918C874.301 103.775 874.617 102.193 874.617 100.172C874.564 97.7109 873.615 96.6035 871.559 96.6035C869.678 96.6035 868.5 97.7461 868.5 99.4863C868.5 100.875 868.957 101.578 869.484 101.842C870.223 102.211 871.242 102.246 871.242 103.986V106.641ZM888.627 81.416L891.545 80.8359V81.3633L888.627 82.207L881.314 86.8477V90.3281H888.768C892.248 90.3281 893.988 91.541 893.988 93.9668C893.988 96.375 892.248 97.5703 888.768 97.5703C885.287 97.5703 883.547 96.3398 883.547 93.8965V93.3164H877.852V93.8965C877.852 96.6387 878.801 98.7305 880.699 100.172C882.598 101.631 885.287 102.352 888.768 102.352C892.248 102.352 894.938 101.631 896.836 100.172C898.717 98.7129 899.666 96.6562 899.666 93.9668C899.666 91.541 898.893 89.6777 897.346 88.3594C895.799 87.0586 893.689 86.4082 891 86.4082L887.607 87.1992V86.6719L890.525 85.8281L898.383 81.416V76.793H878.871V81.416H888.627Z" fill="black"/>
  <path d="M753.878 50.9082V62H755.574V50.9082H760.074V49.3965H749.36V50.9082H753.878ZM759.802 59.5303C759.802 60.4443 760.188 61.1123 760.971 61.5342C761.753 61.9648 762.764 62.1758 764.012 62.1758C764.882 62.1758 765.673 61.9912 766.112 61.7979C766.332 61.7012 766.525 61.5957 766.71 61.4727C767.07 61.2354 767.114 61.1475 767.158 61.1035H767.229L767.272 61.209C767.343 61.3496 767.51 61.5869 767.765 61.7979C768.011 62.0176 768.494 62.1758 769.065 62.1758C769.408 62.1758 769.672 62.1318 769.856 62.0352V60.6465L769.821 60.6641C769.751 60.7256 769.566 60.7607 769.355 60.7607C768.828 60.7607 768.6 60.4883 768.6 59.5742V56.3662C768.591 55.2764 768.195 54.4414 767.422 53.8613C766.648 53.29 765.646 53 764.407 53C763.186 53 762.184 53.2373 761.401 53.7119C760.619 54.1865 760.224 54.9072 760.215 55.8828H761.762C761.762 54.9248 762.641 54.4414 764.407 54.4414C766.235 54.4414 767.053 55.2148 767.053 56.3662V57.7549L766.71 57.5352C766.481 57.3945 766.104 57.2539 765.576 57.1045C765.049 56.9551 764.486 56.8848 763.889 56.8848C762.702 56.8848 761.718 57.0957 760.953 57.5264C760.188 57.957 759.802 58.625 759.802 59.5303ZM764.24 58.3262C764.812 58.3262 765.321 58.3789 765.787 58.4932C766.244 58.6074 766.552 58.7129 766.719 58.792C766.886 58.8799 766.991 58.9502 767.053 59.0117V60.0225C766.991 60.084 766.886 60.1543 766.719 60.2422C766.552 60.3389 766.244 60.4443 765.778 60.5586C765.312 60.6816 764.803 60.7432 764.24 60.7432C762.333 60.7432 761.384 60.3389 761.384 59.5303C761.384 58.7305 762.333 58.3262 764.24 58.3262ZM771.57 49.3965V62H773.117V49.3965H771.57ZM775.824 49.3965V62H777.371V49.3965H775.824ZM780.078 53.1758V62H781.625V53.1758H780.078ZM781.546 49.458C781.37 49.2998 781.142 49.2207 780.852 49.2207C780.562 49.2207 780.333 49.2998 780.157 49.458C779.981 49.625 779.894 49.8271 779.894 50.082C779.894 50.3369 779.981 50.5391 780.157 50.7061C780.333 50.873 780.562 50.9521 780.852 50.9521C781.142 50.9521 781.37 50.873 781.546 50.7061C781.713 50.5391 781.801 50.3369 781.801 50.082C781.801 49.8271 781.713 49.625 781.546 49.458ZM793.183 62V57.0869C793.183 55.7246 792.805 54.7051 792.058 54.0195C791.302 53.3428 790.353 53 789.21 53C788.296 53 787.452 53.2549 787.004 53.5273C786.784 53.668 786.582 53.8262 786.397 53.9932C786.037 54.3447 786.011 54.459 785.967 54.5293H785.879V53.1758H784.332V62H785.879V57.4473C785.879 56.542 786.125 55.8213 786.626 55.2676C787.118 54.7139 787.83 54.4414 788.753 54.4414C789.632 54.4414 790.335 54.6875 790.854 55.1709C791.372 55.6543 791.636 56.4189 791.636 57.4473V62H793.183ZM804.644 62V57.0869C804.644 55.7246 804.266 54.7051 803.519 54.0195C802.763 53.3428 801.813 53 800.671 53C799.757 53 798.913 53.2549 798.465 53.5273C798.245 53.668 798.043 53.8262 797.858 53.9932C797.498 54.3447 797.472 54.459 797.428 54.5293H797.34V53.1758H795.793V62H797.34V57.4473C797.34 56.542 797.586 55.8213 798.087 55.2676C798.579 54.7139 799.291 54.4414 800.214 54.4414C801.093 54.4414 801.796 54.6875 802.314 55.1709C802.833 55.6543 803.097 56.4189 803.097 57.4473V62H804.644Z" fill="black"/>
  <circle cx="452.5" cy="567.5" r="5.5" fill="white"/>
  <path d="M455.561 552V542.824H467.637V538.219H455.561V531.592H470.15V526.793H449.883V552H455.561ZM487.922 538.465L483.211 526.793H474.105V552H479.783V535.266L479.15 532.049H479.748L480.627 535.266L485.232 545.953H491.631L496.236 535.266L497.115 532.049H497.713L497.062 535.266V552H502.758V526.793H493.652L488.941 538.465L488.643 541.488H488.221L487.922 538.465ZM516.697 544.617C516.697 546.445 517.488 548.186 519.105 549.75C520.705 551.314 523.623 552.352 527.279 552.352C531.094 552.352 533.977 551.156 535.928 548.783C537.861 546.41 538.828 543.316 538.828 539.502V538.975C538.828 535.055 537.896 531.996 536.033 529.764C534.152 527.549 531.305 526.441 527.455 526.441C524.062 526.441 521.373 527.215 519.404 528.744C517.436 530.273 516.451 532.383 516.451 535.037C516.451 537.48 517.365 539.449 519.193 540.943C521.004 542.438 523.43 543.176 526.453 543.176C528.141 543.176 529.74 542.807 530.602 542.42C531.023 542.227 531.41 542.016 531.779 541.752C532.5 541.26 532.588 541.066 532.676 540.979H532.816C532.816 543 532.359 544.6 531.445 545.777C530.514 546.973 529.125 547.57 527.244 547.57C525.82 547.57 524.59 547.113 523.975 546.586C522.973 545.76 522.674 544.74 522.709 544.617H516.697ZM527.385 538.781C525.873 538.781 524.66 538.447 523.764 537.779C522.85 537.111 522.393 536.18 522.393 535.002C522.393 532.646 524.273 531.223 527.385 531.223C528.844 531.223 530.057 531.557 530.988 532.225C531.92 532.91 532.395 533.824 532.395 535.002C532.395 536.215 531.92 537.146 530.971 537.797C530.021 538.447 528.826 538.781 527.385 538.781ZM564.615 534.176C564.615 532.189 563.754 530.396 562.049 528.814C560.344 527.232 557.777 526.441 554.367 526.441C550.729 526.441 547.951 527.637 546.035 530.01C544.119 532.4 543.17 535.494 543.17 539.291V539.836C543.17 543.756 544.102 546.814 545.982 549.029C547.846 551.244 550.693 552.352 554.543 552.352C557.953 552.352 560.643 551.578 562.611 550.049C564.58 548.52 565.564 546.41 565.564 543.756C565.564 541.312 564.65 539.344 562.822 537.85C560.994 536.355 558.568 535.617 555.545 535.617C553.875 535.617 552.275 535.986 551.414 536.373C550.975 536.566 550.588 536.795 550.236 537.041C549.516 537.551 549.41 537.727 549.322 537.814H549.182C549.182 535.828 549.621 534.229 550.5 533.016C551.379 531.82 552.68 531.223 554.402 531.223C555.791 531.223 556.916 531.662 557.496 532.189C558.445 533.051 558.604 534.053 558.604 534.176H564.615ZM554.613 540.012C556.125 540.012 557.338 540.346 558.252 541.014C559.166 541.699 559.623 542.613 559.623 543.791C559.623 546.129 557.725 547.57 554.613 547.57C553.154 547.57 551.941 547.236 551.01 546.551C550.078 545.883 549.604 544.969 549.604 543.791C549.604 542.596 550.078 541.664 551.027 540.996C551.977 540.346 553.172 540.012 554.613 540.012ZM571.734 556.641C572.701 556.641 573.492 556.061 574.143 554.918C574.793 553.775 575.109 552.193 575.109 550.172C575.057 547.711 574.107 546.604 572.051 546.604C570.17 546.604 568.992 547.746 568.992 549.486C568.992 550.875 569.449 551.578 569.977 551.842C570.715 552.211 571.734 552.246 571.734 553.986V556.641ZM597.574 552V546.674H600.914V541.998H597.574V526.793H590.051L577.447 541.963V546.674H591.879V552H597.574ZM592.688 530.766L591.879 533.648V541.998H584.039V541.84L590.877 533.648L592.143 530.766H592.688Z" fill="black"/>
  <path d="M455.425 508.326C458.738 508.326 460.47 506.771 460.47 503.861C460.47 500.952 458.738 499.396 455.425 499.396H450.617V512H452.313V508.326H455.425ZM452.313 500.908H455.425C457.534 500.908 458.703 501.893 458.703 503.861C458.703 505.83 457.534 506.814 455.425 506.814H452.313V500.908ZM461.823 509.53C461.823 510.444 462.21 511.112 462.992 511.534C463.774 511.965 464.785 512.176 466.033 512.176C466.903 512.176 467.694 511.991 468.134 511.798C468.354 511.701 468.547 511.596 468.731 511.473C469.092 511.235 469.136 511.147 469.18 511.104H469.25L469.294 511.209C469.364 511.35 469.531 511.587 469.786 511.798C470.032 512.018 470.516 512.176 471.087 512.176C471.43 512.176 471.693 512.132 471.878 512.035V510.646L471.843 510.664C471.772 510.726 471.588 510.761 471.377 510.761C470.85 510.761 470.621 510.488 470.621 509.574V506.366C470.612 505.276 470.217 504.441 469.443 503.861C468.67 503.29 467.668 503 466.429 503C465.207 503 464.205 503.237 463.423 503.712C462.641 504.187 462.245 504.907 462.236 505.883H463.783C463.783 504.925 464.662 504.441 466.429 504.441C468.257 504.441 469.074 505.215 469.074 506.366V507.755L468.731 507.535C468.503 507.395 468.125 507.254 467.598 507.104C467.07 506.955 466.508 506.885 465.91 506.885C464.724 506.885 463.739 507.096 462.975 507.526C462.21 507.957 461.823 508.625 461.823 509.53ZM466.262 508.326C466.833 508.326 467.343 508.379 467.809 508.493C468.266 508.607 468.573 508.713 468.74 508.792C468.907 508.88 469.013 508.95 469.074 509.012V510.022C469.013 510.084 468.907 510.154 468.74 510.242C468.573 510.339 468.266 510.444 467.8 510.559C467.334 510.682 466.824 510.743 466.262 510.743C464.354 510.743 463.405 510.339 463.405 509.53C463.405 508.73 464.354 508.326 466.262 508.326ZM464.091 500.337C464.091 500.908 464.398 501.198 465.022 501.198C465.638 501.198 465.945 500.908 465.945 500.337C465.945 499.836 465.594 499.528 465.022 499.528C464.451 499.528 464.091 499.836 464.091 500.337ZM467.51 500.337C467.51 500.908 467.817 501.198 468.441 501.198C469.057 501.198 469.364 500.908 469.364 500.337C469.364 499.836 469.013 499.528 468.441 499.528C467.87 499.528 467.51 499.836 467.51 500.337ZM478.47 503C477.556 503 476.712 503.334 476.264 503.65C476.044 503.817 475.842 504.011 475.657 504.23C475.297 504.679 475.271 504.793 475.227 504.89H475.139V503.176H473.592V512H475.139V507.808C475.139 506.902 475.411 506.146 475.956 505.54C476.501 504.934 477.248 504.635 478.197 504.635C478.751 504.644 479.19 504.705 479.524 504.819V503.123L479.401 503.105C479.234 503.062 478.856 503 478.47 503ZM490.265 512V507.087C490.265 505.725 489.887 504.705 489.14 504.02C488.384 503.343 487.435 503 486.292 503C485.378 503 484.534 503.255 484.086 503.527C483.866 503.668 483.664 503.826 483.479 503.993C483.119 504.345 483.093 504.459 483.049 504.529H482.961V503.176H481.414V512H482.961V507.447C482.961 506.542 483.207 505.821 483.708 505.268C484.2 504.714 484.912 504.441 485.835 504.441C486.714 504.441 487.417 504.688 487.936 505.171C488.454 505.654 488.718 506.419 488.718 507.447V512H490.265ZM492.875 503.176V508.098C492.875 509.451 493.253 510.471 494.009 511.147C494.756 511.833 495.705 512.176 496.848 512.176C497.762 512.176 498.605 511.93 499.054 511.648C499.273 511.517 499.476 511.358 499.66 511.183C500.012 510.831 500.047 510.717 500.091 510.646H500.179V512H501.726V503.176H500.179V507.737C500.179 508.634 499.933 509.354 499.432 509.908C498.931 510.462 498.219 510.743 497.296 510.743C496.426 510.743 495.723 510.497 495.204 510.014C494.686 509.53 494.422 508.766 494.422 507.737V503.176H492.875Z" fill="black"/>
  <circle cx="743.5" cy="507.5" r="5.5" fill="white"/>
  <path d="M746.561 492V482.824H758.637V478.219H746.561V471.592H761.15V466.793H740.883V492H746.561ZM778.922 478.465L774.211 466.793H765.105V492H770.783V475.266L770.15 472.049H770.748L771.627 475.266L776.232 485.953H782.631L787.236 475.266L788.115 472.049H788.713L788.062 475.266V492H793.758V466.793H784.652L779.941 478.465L779.643 481.488H779.221L778.922 478.465ZM811.652 475.336V492H817.348V466.793H812.514L806.537 471.803V475.336H811.652ZM825.574 488.783C827.701 491.156 830.637 492.352 834.381 492.352C838.125 492.352 841.061 491.156 843.188 488.783C845.314 486.41 846.369 483.281 846.369 479.396C846.369 475.512 845.314 472.365 843.188 469.992C841.061 467.619 838.125 466.441 834.381 466.441C830.637 466.441 827.701 467.619 825.574 469.992C823.447 472.365 822.393 475.512 822.393 479.396C822.393 483.281 823.447 486.41 825.574 488.783ZM838.863 485.127C837.826 486.586 836.332 487.324 834.381 487.324C832.43 487.324 830.936 486.586 829.898 485.127C828.861 483.668 828.334 481.752 828.334 479.396C828.334 477.041 828.861 475.125 829.898 473.666C830.936 472.207 832.43 471.486 834.381 471.486C836.332 471.486 837.826 472.207 838.863 473.666C839.9 475.125 840.428 477.041 840.428 479.396C840.428 481.752 839.9 483.668 838.863 485.127ZM861.1 471.416L864.018 470.836V471.363L861.1 472.207L853.787 476.848V480.328H861.24C864.721 480.328 866.461 481.541 866.461 483.967C866.461 486.375 864.721 487.57 861.24 487.57C857.76 487.57 856.02 486.34 856.02 483.896V483.316H850.324V483.896C850.324 486.639 851.273 488.73 853.172 490.172C855.07 491.631 857.76 492.352 861.24 492.352C864.721 492.352 867.41 491.631 869.309 490.172C871.189 488.713 872.139 486.656 872.139 483.967C872.139 481.541 871.365 479.678 869.818 478.359C868.271 477.059 866.162 476.408 863.473 476.408L860.08 477.199V476.672L862.998 475.828L870.855 471.416V466.793H851.344V471.416H861.1ZM878.309 496.641C879.275 496.641 880.066 496.061 880.717 494.918C881.367 493.775 881.684 492.193 881.684 490.172C881.631 487.711 880.682 486.604 878.625 486.604C876.744 486.604 875.566 487.746 875.566 489.486C875.566 490.875 876.023 491.578 876.551 491.842C877.289 492.211 878.309 492.246 878.309 493.986V496.641ZM888.469 488.783C890.596 491.156 893.531 492.352 897.275 492.352C901.02 492.352 903.955 491.156 906.082 488.783C908.209 486.41 909.264 483.281 909.264 479.396C909.264 475.512 908.209 472.365 906.082 469.992C903.955 467.619 901.02 466.441 897.275 466.441C893.531 466.441 890.596 467.619 888.469 469.992C886.342 472.365 885.287 475.512 885.287 479.396C885.287 483.281 886.342 486.41 888.469 488.783ZM901.758 485.127C900.721 486.586 899.227 487.324 897.275 487.324C895.324 487.324 893.83 486.586 892.793 485.127C891.756 483.668 891.229 481.752 891.229 479.396C891.229 477.041 891.756 475.125 892.793 473.666C893.83 472.207 895.324 471.486 897.275 471.486C899.227 471.486 900.721 472.207 901.758 473.666C902.795 475.125 903.322 477.041 903.322 479.396C903.322 481.752 902.795 483.668 901.758 485.127Z" fill="black"/>
  <path d="M744.878 440.908V452H746.574V440.908H751.074V439.396H740.36V440.908H744.878ZM750.802 449.53C750.802 450.444 751.188 451.112 751.971 451.534C752.753 451.965 753.764 452.176 755.012 452.176C755.882 452.176 756.673 451.991 757.112 451.798C757.332 451.701 757.525 451.596 757.71 451.473C758.07 451.235 758.114 451.147 758.158 451.104H758.229L758.272 451.209C758.343 451.35 758.51 451.587 758.765 451.798C759.011 452.018 759.494 452.176 760.065 452.176C760.408 452.176 760.672 452.132 760.856 452.035V450.646L760.821 450.664C760.751 450.726 760.566 450.761 760.355 450.761C759.828 450.761 759.6 450.488 759.6 449.574V446.366C759.591 445.276 759.195 444.441 758.422 443.861C757.648 443.29 756.646 443 755.407 443C754.186 443 753.184 443.237 752.401 443.712C751.619 444.187 751.224 444.907 751.215 445.883H752.762C752.762 444.925 753.641 444.441 755.407 444.441C757.235 444.441 758.053 445.215 758.053 446.366V447.755L757.71 447.535C757.481 447.395 757.104 447.254 756.576 447.104C756.049 446.955 755.486 446.885 754.889 446.885C753.702 446.885 752.718 447.096 751.953 447.526C751.188 447.957 750.802 448.625 750.802 449.53ZM755.24 448.326C755.812 448.326 756.321 448.379 756.787 448.493C757.244 448.607 757.552 448.713 757.719 448.792C757.886 448.88 757.991 448.95 758.053 449.012V450.022C757.991 450.084 757.886 450.154 757.719 450.242C757.552 450.339 757.244 450.444 756.778 450.559C756.312 450.682 755.803 450.743 755.24 450.743C753.333 450.743 752.384 450.339 752.384 449.53C752.384 448.73 753.333 448.326 755.24 448.326ZM767.448 443C766.534 443 765.69 443.334 765.242 443.65C765.022 443.817 764.82 444.011 764.636 444.23C764.275 444.679 764.249 444.793 764.205 444.89H764.117V443.176H762.57V452H764.117V447.808C764.117 446.902 764.39 446.146 764.935 445.54C765.479 444.934 766.227 444.635 767.176 444.635C767.729 444.644 768.169 444.705 768.503 444.819V443.123L768.38 443.105C768.213 443.062 767.835 443 767.448 443ZM775.965 444.582V443.176H772.695V441.198H771.148V443.176H769.672V444.582H771.148V448.774C771.148 449.908 771.447 450.752 772.054 451.323C772.651 451.895 773.469 452.176 774.497 452.176C775.2 452.185 775.78 452.062 776.237 451.824V450.418L776.079 450.523C775.859 450.664 775.271 450.831 774.673 450.831C773.354 450.831 772.695 450.084 772.695 448.581V444.582H775.965ZM777.846 443.176V448.098C777.846 449.451 778.224 450.471 778.979 451.147C779.727 451.833 780.676 452.176 781.818 452.176C782.732 452.176 783.576 451.93 784.024 451.648C784.244 451.517 784.446 451.358 784.631 451.183C784.982 450.831 785.018 450.717 785.062 450.646H785.149V452H786.696V443.176H785.149V447.737C785.149 448.634 784.903 449.354 784.402 449.908C783.901 450.462 783.189 450.743 782.267 450.743C781.396 450.743 780.693 450.497 780.175 450.014C779.656 449.53 779.393 448.766 779.393 447.737V443.176H777.846Z" fill="black"/>
  <defs>
    <radialGradient id="paint0_radial" cx="0" cy="0" r="1" gradientUnits="userSpaceOnUse" gradientTransform="translate(239.421 235.357) scale(271.717 271.307)">
      <stop offset="0.430124" stop-color="#2B2B2B"/>
      <stop offset="0.9642" stop-color="#2B82FF"/>
    </radialGradient>
    <radialGradient id="paint1_radial" cx="0" cy="0" r="1" gradientUnits="userSpaceOnUse" gradientTransform="translate(983.599 939.576) rotate(-92.3024) scale(1283.05)">
      <stop offset="0.265334" stop-color="#2B2B2B"/>
      <stop offset="0.741315" stop-color="#2B82FF"/>
    </radialGradient>
  </defs>
</svg>