<svg width="54" height="16" viewBox="0 0 54 16" fill="none" xmlns="http://www.w3.org/2000/svg">
<rect width="29" height="16" rx="8" fill="black"/>
<path d="M11.4297 8C11.4297 7.02148 11.1133 6.25977 10.4805 5.70898C9.84766 5.1582 9.02734 4.88281 8.01953 4.88281C7.00586 4.88281 6.17969 5.1582 5.54688 5.70898C4.91406 6.25977 4.59766 7.02148 4.59766 8C4.59766 8.97852 4.91406 9.74023 5.55273 10.291C6.19141 10.8418 7.01758 11.1172 8.04297 11.1172C8.57617 11.1172 9.05664 11.0469 9.48438 10.9062C9.90625 10.7715 10.2227 10.6133 10.4395 10.4434C10.6504 10.2734 10.8262 10.0742 10.9727 9.8457C11.1191 9.62305 11.2012 9.4707 11.2305 9.38281C11.2598 9.30078 11.2773 9.23047 11.2832 9.17773H9.39062L9.2793 9.31836C9.20898 9.42383 9.0625 9.52344 8.83984 9.62305C8.61133 9.72266 8.34766 9.77539 8.04297 9.77539C7.52148 9.77539 7.12305 9.64648 6.8418 9.38281C6.55469 9.125 6.41406 8.81445 6.41406 8.45703H11.3945L11.4297 8ZM8.01953 6.22461C8.52344 6.22461 8.91016 6.34766 9.18555 6.59375C9.45508 6.8457 9.58984 7.11523 9.58984 7.40234H6.4375C6.4375 7.12109 6.57812 6.85156 6.85938 6.59961C7.13477 6.34766 7.52148 6.22461 8.01953 6.22461ZM18.4961 6.85742C18.4961 5.53906 17.5176 4.87695 15.5547 4.88281C14.6465 4.88281 13.9316 5.03516 13.4102 5.3457C12.8887 5.65625 12.625 6.11328 12.625 6.70508C12.625 7.10938 12.7363 7.44336 12.9531 7.70703C13.1699 7.9707 13.4395 8.1582 13.7617 8.25781C14.084 8.35742 14.4355 8.43945 14.8105 8.50391C15.1855 8.56836 15.5371 8.60938 15.8594 8.63281C16.1816 8.66211 16.457 8.7207 16.6738 8.81445C16.8906 8.91406 16.9961 9.04883 16.9961 9.22461C16.9902 9.62891 16.5332 9.83398 15.625 9.83398C14.6875 9.83398 14.2832 9.62305 14.2832 9.07812V8.89062H12.5078V9.07812C12.5078 10.4375 13.5449 11.1172 15.625 11.1172C17.7227 11.123 18.7715 10.4844 18.7715 9.20117C18.7715 8.71484 18.6191 8.32227 18.3203 8.03516C18.0215 7.74805 17.6582 7.55469 17.2305 7.4668C16.8027 7.37891 16.375 7.32031 15.9473 7.2793C15.5195 7.23828 15.1562 7.17969 14.8574 7.09766C14.5586 7.02148 14.4062 6.89258 14.4062 6.7168C14.4062 6.34766 14.7754 6.16602 15.5195 6.16602C16.0645 6.16602 16.4219 6.24219 16.5625 6.40625C16.6973 6.57617 16.7207 6.66406 16.7207 6.85742H18.4961ZM20.1777 8.73242C20.1777 10.3789 21.0684 11.1172 22.8262 11.1172C23.2832 11.123 23.6582 11.0527 23.957 10.9062V9.46484L23.8457 9.51172C23.7227 9.58789 23.4004 9.68164 23.0781 9.68164C22.7031 9.68164 22.416 9.59961 22.2109 9.42969C22.0059 9.25977 21.9062 8.95508 21.9062 8.50391V6.39453H23.7754V5H21.9062V3.79883H20.9688L19.2988 5.39844V6.39453H20.1777V8.73242Z" fill="white"/>
<path d="M39.752 4.88281C39.1426 4.88281 38.5977 5.09375 38.3105 5.30469C38.1641 5.41602 38.041 5.53906 37.9297 5.67969C37.707 5.96094 37.6953 6.03711 37.666 6.10156H37.5664V5H35.8379V11H37.5664V8.3457C37.5664 7.85938 37.7188 7.45508 38.0176 7.13867C38.3164 6.82812 38.75 6.66992 39.3066 6.66992C39.7461 6.66406 40.0918 6.72266 40.3496 6.8457V4.94141L39.752 4.88281ZM41.6152 5V8.50391C41.6152 9.37695 41.8496 10.0273 42.3125 10.4609C42.7754 10.9004 43.3789 11.1172 44.1348 11.1172C44.7617 11.1172 45.3418 10.9355 45.6348 10.7305C45.7812 10.6309 45.9102 10.5137 46.0215 10.3848C46.25 10.1328 46.2676 10.0684 46.2969 10.0039H46.3906V11H48.1191V5H46.3906V8.02344C46.3906 8.48633 46.2617 8.86133 45.998 9.14844C45.7344 9.43555 45.3535 9.58203 44.8672 9.58203C43.9297 9.58203 43.3438 9.04883 43.3438 8.02344V5H41.6152Z" fill="#CECECE"/>
</svg>
