<svg width="76" height="27" viewBox="0 0 76 27" fill="none" xmlns="http://www.w3.org/2000/svg">
<rect y="11" width="29" height="16" rx="8" fill="black"/>
<path d="M33.4512 23.1172C32.5918 23.1172 31.8926 22.8359 31.3535 22.2734C30.8145 21.707 30.5449 20.9512 30.5449 20.0059V19.8066C30.5449 19.1777 30.6641 18.6172 30.9023 18.125C31.1445 17.6289 31.4805 17.2422 31.9102 16.9648C32.3438 16.6836 32.8125 16.543 33.3164 16.543C34.1406 16.543 34.7812 16.8145 35.2383 17.3574C35.6953 17.9004 35.9238 18.6777 35.9238 19.6895V20.1406H31.6289C31.6445 20.7656 31.8262 21.2715 32.1738 21.6582C32.5254 22.041 32.9707 22.2324 33.5098 22.2324C33.8926 22.2324 34.2168 22.1543 34.4824 21.998C34.748 21.8418 34.9805 21.6348 35.1797 21.377L35.8418 21.8926C35.3105 22.709 34.5137 23.1172 33.4512 23.1172ZM33.3164 17.4336C32.8789 17.4336 32.5117 17.5938 32.2148 17.9141C31.918 18.2305 31.7344 18.6758 31.6641 19.25H34.8398V19.168C34.8086 18.6172 34.6602 18.1914 34.3945 17.8906C34.1289 17.5859 33.7695 17.4336 33.3164 17.4336ZM40.875 21.3184C40.875 21.0254 40.7637 20.7988 40.541 20.6387C40.3223 20.4746 39.9375 20.334 39.3867 20.2168C38.8398 20.0996 38.4043 19.959 38.0801 19.7949C37.7598 19.6309 37.5215 19.4355 37.3652 19.209C37.2129 18.9824 37.1367 18.7129 37.1367 18.4004C37.1367 17.8809 37.3555 17.4414 37.793 17.082C38.2344 16.7227 38.7969 16.543 39.4805 16.543C40.1992 16.543 40.7812 16.7285 41.2266 17.0996C41.6758 17.4707 41.9004 17.9453 41.9004 18.5234H40.8105C40.8105 18.2266 40.6836 17.9707 40.4297 17.7559C40.1797 17.541 39.8633 17.4336 39.4805 17.4336C39.0859 17.4336 38.7773 17.5195 38.5547 17.6914C38.332 17.8633 38.2207 18.0879 38.2207 18.3652C38.2207 18.627 38.3242 18.8242 38.5312 18.957C38.7383 19.0898 39.1113 19.2168 39.6504 19.3379C40.1934 19.459 40.6328 19.6035 40.9688 19.7715C41.3047 19.9395 41.5527 20.1426 41.7129 20.3809C41.877 20.6152 41.959 20.9023 41.959 21.2422C41.959 21.8086 41.7324 22.2637 41.2793 22.6074C40.8262 22.9473 40.2383 23.1172 39.5156 23.1172C39.0078 23.1172 38.5586 23.0273 38.168 22.8477C37.7773 22.668 37.4707 22.418 37.248 22.0977C37.0293 21.7734 36.9199 21.4238 36.9199 21.0488H38.0039C38.0234 21.4121 38.168 21.7012 38.4375 21.916C38.7109 22.127 39.0703 22.2324 39.5156 22.2324C39.9258 22.2324 40.2539 22.1504 40.5 21.9863C40.75 21.8184 40.875 21.5957 40.875 21.3184ZM44.8418 15.125V16.6602H46.0254V17.498H44.8418V21.4297C44.8418 21.6836 44.8945 21.875 45 22.0039C45.1055 22.1289 45.2852 22.1914 45.5391 22.1914C45.6641 22.1914 45.8359 22.168 46.0547 22.1211V23C45.7695 23.0781 45.4922 23.1172 45.2227 23.1172C44.7383 23.1172 44.373 22.9707 44.127 22.6777C43.8809 22.3848 43.7578 21.9688 43.7578 21.4297V17.498H42.6035V16.6602H43.7578V15.125H44.8418Z" fill="#CECECE"/>
<path d="M12.8848 16.6328C12.7207 16.6055 12.543 16.5918 12.3516 16.5918C11.6406 16.5918 11.1582 16.8945 10.9043 17.5V22H9.82031V15.6602H10.875L10.8926 16.3926C11.248 15.8262 11.752 15.543 12.4043 15.543C12.6152 15.543 12.7754 15.5703 12.8848 15.625V16.6328ZM17.8008 21.373C17.3789 21.8691 16.7598 22.1172 15.9434 22.1172C15.2676 22.1172 14.752 21.9219 14.3965 21.5312C14.0449 21.1367 13.8672 20.5547 13.8633 19.7852V15.6602H14.9473V19.7559C14.9473 20.7168 15.3379 21.1973 16.1191 21.1973C16.9473 21.1973 17.498 20.8887 17.7715 20.2715V15.6602H18.8555V22H17.8242L17.8008 21.373Z" fill="white"/>
</svg>
